<svg id="Layer_1" data-name="Layer 1" xmlns="http://www.w3.org/2000/svg" viewBox="0 0 305.63 380.27"><defs><style>.cls-1{fill:#ededdd;}</style></defs><path class="cls-1" d="M137.77,174.28,41,239.91a3.68,3.68,0,0,1-5.57-4.2c9.25-27.7,41.32-102.8,92.12-87Z"/><path class="cls-1" d="M138.62,136.82l2-122.3a3.68,3.68,0,0,1,6.64-2.13c17.27,23.55,60.42,90.64,18.19,123Z"/><path class="cls-1" d="M179.62,154.81,283.71,209.3a3.68,3.68,0,0,1-1.08,6.89c-28.79,4.89-108.1,13.4-118.11-38.85Z"/><path class="cls-1" d="M72.45,22.5C50.15,40.08,32,61.07,19.68,86.4a212.17,212.17,0,0,0-9.12,20.21A139.12,139.12,0,0,0,5.8,122.74c-5.81,25.87.33,52.93,12.7,76C35.09,231.38,64.22,257.09,98,271c13.9,5.81,28.47,9.21,43.45,11.33a.61.61,0,0,1,0,1.2c-34.58,4.54-72-8-98.26-32.13C23,232.55,8.13,207.17,3.26,180A208.07,208.07,0,0,1,.54,127.83c.9-16.59,3.76-33.45,10.83-48.6A120.38,120.38,0,0,1,41.94,39.62,109.18,109.18,0,0,1,71.85,21.46a.61.61,0,0,1,.6,1Z"/><path class="cls-1" d="M143.36,171.08s.08,178.84-26.47,180.11a4.64,4.64,0,0,0-1.23.19c-5,1.63-39.87,13.15-53.09,21.86a1.67,1.67,0,0,0-.73,1.56c.23,2.16,1.34,6.79,6.81,5.11,7-2.17,47.09-13.47,80.53-13.11l3.73-.05c32.1.89,74.92,11,82,13.16,5.41,1.66,6.56-2.86,6.8-5a1.78,1.78,0,0,0-.77-1.67c-13.27-8.7-48-20.19-53-21.82a4.71,4.71,0,0,0-1.24-.19C160.09,349.92,161,171.08,161,171.08Z"/><path class="cls-1" d="M304.45,117.54A180,180,0,0,0,255.31,41.3c-16.69-16.24-36.6-28.86-60-32.52-15.19-2.61-30.83-1.57-45.83,1.27C106.61,17.85,68.59,45.5,46.12,82.67a181.3,181.3,0,0,0-12.95,26.07.59.59,0,0,1-.78.33.61.61,0,0,1-.38-.63C41.25,39.12,110-9.3,178.45,1.51c27.31,3.82,61.4,15.25,83.36,32.18,25.27,20,42.2,51.54,43.82,83.63a.59.59,0,0,1-.58.63.6.6,0,0,1-.6-.41Z"/><path class="cls-1" d="M275.78,205.86C294.7,171,297,127.6,281.89,90.47c19.64,36.62,21.67,82.09,5.67,120.9-3.77,8.28-15.73,2.71-11.78-5.51Z"/><path class="cls-1" d="M154,128.52a26.67,26.67,0,1,0,26.67,26.67A26.67,26.67,0,0,0,154,128.52Zm0,35.33a8.66,8.66,0,1,1,8.65-8.66A8.66,8.66,0,0,1,154,163.85Z"/></svg>